:FULLY-SPECIFIED
:FORCE-ALL-JOINTS-BE-3DOF
:DEGREES
645
root 5.61208 16.4688 -2.95648 0 0 0
lfemur -16.3354 22.8352 -27.1962
ltibia 0 0 0
lfoot -36.1848 12.2751 -0.00072282
ltoes 21.9472 -0 0
rfemur -58.5557 -27.9728 31.9078
rtibia 66.7967 -0 0
rfoot -5.22142 -2.94356 0.0955468
rtoes 0 0 0
lowerback 0 0 0
upperback -1.97902 -5.17594 0.218106
thorax 0 0 0
lowerneck -9.83488 -7.35736 -0.229355
upperneck 0 0 0
head 0 0 0
lclavicle 0 0 0
lhumerus 0 0 0
lradius 0 0 0
lwrist 0 0 0
lhand 0 0 0
lfingers 0 0 0
lthumb 0 0 0
rclavicle 0 0 0
rhumerus 0 0 0
rradius 68.0959 -0 0
rwrist -22.4701 0 0
rhand 0 0 0
rfingers 0 0 0
rthumb -2.87754 -74.1167 -0.0201405
646
root 5.59676 16.4368 -2.89394 0 0 0
lfemur -16.5835 23.2774 -27.603
ltibia 0 0 0
lfoot -36.4069 12.2812 -0.000587578
ltoes 21.5677 -0 0
rfemur -59.5177 -28.5453 32.9311
rtibia 67.0804 -0 0
rfoot -5.96839 -3.1826 0.0776569
rtoes 0 0 0
lowerback 0 0 0
upperback -1.9386 -5.23045 0.0687066
thorax 0 0 0
lowerneck -9.80176 -7.34394 -0.311622
upperneck 0 0 0
head 0 0 0
lclavicle 0 0 0
lhumerus 0 0 0
lradius 0 0 0
lwrist 0 0 0
lhand 0 0 0
lfingers 0 0 0
lthumb 0 0 0
rclavicle 0 0 0
rhumerus 0 0 0
rradius 66.2403 -0 0
rwrist -20.983 0 0
rhand 0 0 0
rfingers 0 0 0
rthumb -2.83835 -75.0766 -0.016368
647
root 5.58195 16.4054 -2.82789 0 0 0
lfemur -16.8095 23.6723 -27.9705
ltibia 0 0 0
lfoot -36.6061 12.2867 -0.000446295
ltoes 21.2274 -0 0
rfemur -60.3943 -29.0454 33.8622
rtibia 67.3346 -0 0
rfoot -6.63786 -3.39666 0.0589742
rtoes 0 0 0
lowerback 0 0 0
upperback -1.90224 -5.27922 -0.0652498
thorax 0 0 0
lowerneck -9.77209 -7.33188 -0.385353
upperneck 0 0 0
head 0 0 0
lclavicle 0 0 0
lhumerus 0 0 0
lradius 0 0 0
lwrist 0 0 0
lhand 0 0 0
lfingers 0 0 0
lthumb 0 0 0
rclavicle 0 0 0
rhumerus 0 0 0
rradius 64.577 -0 0
rwrist -19.6501 0 0
rhand 0 0 0
rfingers 0 0 0
rthumb -2.80329 -75.937 -0.012429
648
root 5.56782 16.3751 -2.75817 0 0 0
lfemur -17.0075 24.0125 -28.2904
ltibia 0 0 0
lfoot -36.7781 12.2914 -0.000308967
ltoes 20.9335 -0 0
rfemur -61.1625 -29.4672 34.6773
rtibia 67.5543 -0 0
rfoot -7.21618 -3.5814 0.0408205
rtoes 0 0 0
lowerback 0 0 0
upperback -1.87074 -5.32129 -0.181014
thorax 0 0 0
lowerneck -9.74647 -7.32142 -0.449046
upperneck 0 0 0
head 0 0 0
lclavicle 0 0 0
lhumerus 0 0 0
lradius 0 0 0
lwrist 0 0 0
lhand 0 0 0
lfingers 0 0 0
lthumb 0 0 0
rclavicle 0 0 0
rhumerus 0 0 0
rradius 63.1401 -0 0
rwrist -18.4985 0 0
rhand 0 0 0
rfingers 0 0 0
rthumb -2.77304 -76.6804 -0.00860227
649
root 5.55457 16.346 -2.68458 0 0 0
lfemur -17.1716 24.2902 -28.5539
ltibia 0 0 0
lfoot -36.9189 12.2953 -0.00018597
ltoes 20.6928 -0 0
rfemur -61.799 -29.8055 35.3521
rtibia 67.7341 -0 0
rfoot -7.68973 -3.73255 0.0245665
rtoes 0 0 0
lowerback 0 0 0
upperback -1.84488 -5.35569 -0.275837
thorax 0 0 0
lowerneck -9.72549 -7.31284 -0.501199
upperneck 0 0 0
head 0 0 0
lclavicle 0 0 0
lhumerus 0 0 0
lradius 0 0 0
lwrist 0 0 0
lhand 0 0 0
lfingers 0 0 0
lthumb 0 0 0
rclavicle 0 0 0
rhumerus 0 0 0
rradius 61.9633 -0 0
rwrist -17.5554 0 0
rhand 0 0 0
rfingers 0 0 0
rthumb -2.74832 -77.2891 -0.00517658
650
root 5.54236 16.3186 -2.60696 0 0 0
lfemur -17.2958 24.4981 -28.7524
ltibia 0 0 0
lfoot -37.0246 12.2982 -8.74942e-05
ltoes 20.5123 -0 0
rfemur -62.2808 -30.055 35.8625
rtibia 67.8691 -0 0
rfoot -8.04486 -3.84581 0.0115566
rtoes 0 0 0
lowerback 0 0 0
upperback -1.82544 -5.38146 -0.346967
thorax 0 0 0
lowerneck -9.70977 -7.30639 -0.540311
upperneck 0 0 0
head 0 0 0
lclavicle 0 0 0
lhumerus 0 0 0
lradius 0 0 0
lwrist 0 0 0
lhand 0 0 0
lfingers 0 0 0
lthumb 0 0 0
rclavicle 0 0 0
rhumerus 0 0 0
rradius 61.0808 -0 0
rwrist -16.8482 0 0
rhand 0 0 0
rfingers 0 0 0
rthumb -2.72979 -77.7457 -0.002435
651
root 5.53139 16.293 -2.52512 0 0 0
lfemur -17.3744 24.6285 -28.8776
ltibia 0 0 0
lfoot -37.091 12.3 -2.29018e-05
ltoes 20.3988 -0 0
rfemur -62.5854 -30.2097 36.1851
rtibia 67.9538 -0 0
rfoot -8.26794 -3.91693 0.00302472
rtoes 0 0 0
lowerback 0 0 0
upperback -1.81321 -5.39764 -0.391658
thorax 0 0 0
lowerneck -9.6999 -7.30234 -0.56488
upperneck 0 0 0
head 0 0 0
lclavicle 0 0 0
lhumerus 0 0 0
lradius 0 0 0
lwrist 0 0 0
lhand 0 0 0
lfingers 0 0 0
lthumb 0 0 0
rclavicle 0 0 0
rhumerus 0 0 0
rradius 60.5264 -0 0
rwrist -16.4038 0 0
rhand 0 0 0
rfingers 0 0 0
rthumb -2.71817 -78.0325 -0.000637289
652
root 5.52183 16.2696 -2.43889 17.7807 5.81363 0.36883
lfemur -17.4017 24.6737 -28.9211
ltibia 36.9351 0 0
lfoot -37.114 12.3006 0
ltoes 20.3595 0 0
rfemur -62.6914 -30.2631 36.2973
rtibia 67.9832 0 0
rfoot -8.34533 -3.94159 0
rtoes 2.98849 0 0
lowerback -0.591138 -4.03337 -5.88217
upperback -1.80897 -5.40325 -0.407164
thorax -1.03332 -2.63444 2.85238
lowerneck -9.69647 -7.30093 -0.573404
upperneck 3.11671 -10.1537 7.38745
head 3.18248 -4.7859 1.91621
lclavicle -3.79679e-14 -7.95139e-15 0
lhumerus -44.5367 -71.1192 127.009
lradius 73.1505 0 0
lwrist 24.9573 0 0
lhand -4.93506 3.74556 0
lfingers 7.12502 0 0
lthumb 20.8558 32.6446 0
rclavicle -3.79679e-14 -7.95139e-15 0
rhumerus -41.6572 -5.62375 -76.5216
rradius 60.334 0 0
rwrist -16.2497 0 0
rhand -29.3753 -48.1698 0
rfingers 7.12502 0 0
rthumb -2.71414 -78.132 0
653
root 5.51337 16.2447 -2.34773 0 0 0
lfemur 0 0 0
ltibia 0 0 0
lfoot 0 0 0
ltoes 19.8088 -0 0
rfemur -62.1953 -29.9236 36.0506
rtibia 67.9619 -0 0
rfoot -8.78027 -4.04738 0.0139305
rtoes 2.96861 -0 0
lowerback 0 0 0
upperback 0 0 0
thorax -1.04227 -2.68206 2.81232
lowerneck 0 0 0
upperneck 3.07801 -10.035 7.25331
head 3.15937 -4.7327 1.87545
lclavicle 0 0 0
lhumerus 0 0 0
lradius 0 0 0
lwrist 0 0 0
lhand 0 0 0
lfingers 0 0 0
lthumb 0 0 0
rclavicle 0 0 0
rhumerus 0 0 0
rradius 0 0 0
rwrist 0 0 0
rhand 0 0 0
rfingers 0 0 0
rthumb 0 0 0
654
root 5.50553 16.2151 -2.25144 0 0 0
lfemur 0 0 0
ltibia 0 0 0
lfoot 0 0 0
ltoes 19.0998 -0 0
rfemur -61.5615 -29.4839 35.7392
rtibia 67.9346 -0 0
rfoot -9.34023 -4.18372 0.0306808
rtoes 2.94303 -0 0
lowerback 0 0 0
upperback 0 0 0
thorax -1.05375 -2.74338 2.76077
lowerneck 0 0 0
upperneck 3.02779 -9.88234 7.08057
head 3.12957 -4.66424 1.82295
lclavicle 0 0 0
lhumerus 0 0 0
lradius 0 0 0
lwrist 0 0 0
lhand 0 0 0
lfingers 0 0 0
lthumb 0 0 0
rclavicle 0 0 0
rhumerus 0 0 0
rradius 0 0 0
rwrist 0 0 0
rhand 0 0 0
rfingers 0 0 0
rthumb 0 0 0
655
root 5.49828 16.1815 -2.15031 0 0 0
lfemur 0 0 0
ltibia 0 0 0
lfoot 0 0 0
ltoes 18.2516 -0 0
rfemur -60.8104 -28.954 35.3757
rtibia 67.9018 -0 0
rfoot -10.0102 -4.34705 0.0489694
rtoes 2.91242 -0 0
lowerback 0 0 0
upperback 0 0 0
thorax -1.06742 -2.81675 2.69909
lowerneck 0 0 0
upperneck 2.96712 -9.69988 6.87384
head 3.09384 -4.58236 1.76009
lclavicle 0 0 0
lhumerus 0 0 0
lradius 0 0 0
lwrist 0 0 0
lhand 0 0 0
lfingers 0 0 0
lthumb 0 0 0
rclavicle 0 0 0
rhumerus 0 0 0
rradius 0 0 0
rwrist 0 0 0
rhand 0 0 0
rfingers 0 0 0
rthumb 0 0 0
656
root 5.49156 16.1449 -2.04464 0 0 0
lfemur 0 0 0
ltibia 0 0 0
lfoot 0 0 0
ltoes 17.283 -0 0
rfemur -59.9622 -28.3439 34.9726
rtibia 67.8644 -0 0
rfoot -10.7753 -4.53378 0.0675142
rtoes 2.87746 -0 0
lowerback 0 0 0
upperback 0 0 0
thorax -1.08292 -2.90054 2.62869
lowerneck 0 0 0
upperneck 2.89707 -9.49182 6.63768
head 3.05294 -4.48892 1.68827
lclavicle 0 0 0
lhumerus 0 0 0
lradius 0 0 0
lwrist 0 0 0
lhand 0 0 0
lfingers 0 0 0
lthumb 0 0 0
rclavicle 0 0 0
rhumerus 0 0 0
rradius 0 0 0
rwrist 0 0 0
rhand 0 0 0
rfingers 0 0 0
rthumb 0 0 0
657
root 5.48531 16.1061 -1.93475 0 0 0
lfemur 0 0 0
ltibia 0 0 0
lfoot 0 0 0
ltoes 16.2133 -0 0
rfemur -59.0365 -27.664 34.542
rtibia 67.8231 -0 0
rfoot -11.6204 -4.74031 0.085098
rtoes 2.83886 -0 0
lowerback 0 0 0
upperback 0 0 0
thorax -1.09993 -2.99312 2.55095
lowerneck 0 0 0
upperneck 2.81874 -9.26233 6.37669
head 3.00763 -4.38577 1.60887
lclavicle 0 0 0
lhumerus 0 0 0
lradius 0 0 0
lwrist 0 0 0
lhand 0 0 0
lfingers 0 0 0
lthumb 0 0 0
rclavicle 0 0 0
rhumerus 0 0 0
rradius 0 0 0
rwrist 0 0 0
rhand 0 0 0
rfingers 0 0 0
rthumb 0 0 0
